<svg width="680" height="175" viewBox="0 0 680 175" fill="none" xmlns="http://www.w3.org/2000/svg">
<g filter="url(#filter0_dd_102_805)">
<circle cx="20" cy="20" r="20" transform="matrix(-1 0 0 1 107 63)" fill="white"/>
</g>
<path opacity="0.3" d="M88.9922 89.9922C89.2734 89.9922 89.5234 89.8984 89.7109 89.7109C90.1172 89.3359 90.1172 88.6797 89.7109 88.3047L84.4297 82.9922L89.7109 77.7109C90.1172 77.3359 90.1172 76.6797 89.7109 76.3047C89.3359 75.8984 88.6797 75.8984 88.3047 76.3047L82.3047 82.3047C81.8984 82.6797 81.8984 83.3359 82.3047 83.7109L88.3047 89.7109C88.4922 89.8984 88.7422 89.9922 88.9922 89.9922Z" fill="#201B21"/>
<circle opacity="0.2" cx="358" cy="83" r="4" fill="#201B21"/>
<circle opacity="0.2" cx="342" cy="83" r="4" fill="#201B21"/>
<ellipse cx="324" cy="83" rx="6" ry="6" fill="#201B21"/>
<g filter="url(#filter1_dd_102_805)">
<circle cx="593" cy="83" r="20" fill="white"/>
</g>
<path d="M591.008 89.9922C590.727 89.9922 590.477 89.8984 590.289 89.7109C589.883 89.3359 589.883 88.6797 590.289 88.3047L595.57 82.9922L590.289 77.7109C589.883 77.3359 589.883 76.6797 590.289 76.3047C590.664 75.8984 591.32 75.8984 591.695 76.3047L597.695 82.3047C598.102 82.6797 598.102 83.3359 597.695 83.7109L591.695 89.7109C591.508 89.8984 591.258 89.9922 591.008 89.9922Z" fill="#201B21"/>
<defs>
<filter id="filter0_dd_102_805" x="0.333336" y="0.77778" width="173.333" height="173.333" filterUnits="userSpaceOnUse" color-interpolation-filters="sRGB">
<feFlood flood-opacity="0" result="BackgroundImageFix"/>
<feColorMatrix in="SourceAlpha" type="matrix" values="0 0 0 0 0 0 0 0 0 0 0 0 0 0 0 0 0 0 127 0" result="hardAlpha"/>
<feOffset dy="4.44444"/>
<feGaussianBlur stdDeviation="33.3333"/>
<feComposite in2="hardAlpha" operator="out"/>
<feColorMatrix type="matrix" values="0 0 0 0 0 0 0 0 0 0 0 0 0 0 0 0 0 0 0.08 0"/>
<feBlend mode="normal" in2="BackgroundImageFix" result="effect1_dropShadow_102_805"/>
<feColorMatrix in="SourceAlpha" type="matrix" values="0 0 0 0 0 0 0 0 0 0 0 0 0 0 0 0 0 0 127 0" result="hardAlpha"/>
<feOffset dy="4.44444"/>
<feGaussianBlur stdDeviation="33.3333"/>
<feComposite in2="hardAlpha" operator="out"/>
<feColorMatrix type="matrix" values="0 0 0 0 0 0 0 0 0 0 0 0 0 0 0 0 0 0 0.08 0"/>
<feBlend mode="normal" in2="effect1_dropShadow_102_805" result="effect2_dropShadow_102_805"/>
<feBlend mode="normal" in="SourceGraphic" in2="effect2_dropShadow_102_805" result="shape"/>
</filter>
<filter id="filter1_dd_102_805" x="506.333" y="0.77778" width="173.333" height="173.333" filterUnits="userSpaceOnUse" color-interpolation-filters="sRGB">
<feFlood flood-opacity="0" result="BackgroundImageFix"/>
<feColorMatrix in="SourceAlpha" type="matrix" values="0 0 0 0 0 0 0 0 0 0 0 0 0 0 0 0 0 0 127 0" result="hardAlpha"/>
<feOffset dy="4.44444"/>
<feGaussianBlur stdDeviation="33.3333"/>
<feComposite in2="hardAlpha" operator="out"/>
<feColorMatrix type="matrix" values="0 0 0 0 0 0 0 0 0 0 0 0 0 0 0 0 0 0 0.08 0"/>
<feBlend mode="normal" in2="BackgroundImageFix" result="effect1_dropShadow_102_805"/>
<feColorMatrix in="SourceAlpha" type="matrix" values="0 0 0 0 0 0 0 0 0 0 0 0 0 0 0 0 0 0 127 0" result="hardAlpha"/>
<feOffset dy="4.44444"/>
<feGaussianBlur stdDeviation="33.3333"/>
<feComposite in2="hardAlpha" operator="out"/>
<feColorMatrix type="matrix" values="0 0 0 0 0 0 0 0 0 0 0 0 0 0 0 0 0 0 0.08 0"/>
<feBlend mode="normal" in2="effect1_dropShadow_102_805" result="effect2_dropShadow_102_805"/>
<feBlend mode="normal" in="SourceGraphic" in2="effect2_dropShadow_102_805" result="shape"/>
</filter>
</defs>
</svg>
